#!OML:ASF H:\BabyWalks\Project 1\Capture day 1\Session 1\baby.ASF
:FULLY-SPECIFIED
:DEGREES
736
root 29.061 17.6117 -0.088158 355.585 125.173 360.45
lowerback 17.0238 3.94779 6.70973
upperback 6.80821 6.85942 -0.809667
thorax -1.31381 3.82899 -5.8044
lowerneck 4.02946 17.6 15.4247
upperneck 3.42866 24.6538 -12.9421
head 3.86335 12.391 -4.94036
rclavicle -5.77469e-014 1.39149e-014
rhumerus -36.7454 -1.61041 -77.5509
rradius 53.3743
rwrist 0.666783
rhand -13.0404 -16.1314
rfingers 7.12502
rthumb 13.0543 -45.7029
lclavicle -5.77469e-014 1.39149e-014
lhumerus -31.6469 -12.3618 80.5099
lradius 51.1808
lwrist 2.34794
lhand 0.771205 10.812
lfingers 7.12502
lthumb 26.3288 39.0045
rfemur -5.74809 -8.30367 14.8615
rtibia 28.2964
rfoot -15.65 -29.9048
rtoes 3.53055
lfemur -0.0304606 -19.1673 -15.4342
ltibia 20.897
lfoot -23.4358 -19.8537
ltoes -2.87957
737
root 29.0552 17.6125 -0.100827 355.606 125.258 360.531
lowerback 16.9782 3.96736 6.69816
upperback 6.80967 6.88043 -0.815174
thorax -1.28608 3.84075 -5.80177
lowerneck 4.0198 17.5829 15.4248
upperneck 3.42834 24.6302 -12.9367
head 3.8608 12.3791 -4.94106
rclavicle -4.67144e-015 -3.37934e-014
rhumerus -36.6968 -1.20273 -77.8952
rradius 53.7534
rwrist 0.616587
rhand -12.8884 -16.0012
rfingers 7.12502
rthumb 13.2008 -45.5633
lclavicle -4.67144e-015 -3.37934e-014
lhumerus -31.6422 -11.9928 80.3268
lradius 50.4384
lwrist 2.10398
lhand 0.785913 10.841
lfingers 7.12502
lthumb 26.3429 39.0314
rfemur -5.58763 -8.24073 14.8608
rtibia 28.1375
rfoot -15.6448 -30.0247
rtoes 3.60529
lfemur -0.037556 -19.1548 -15.4381
ltibia 20.9785
lfoot -23.4431 -19.9658
ltoes -2.76403
738
root 29.0493 17.6133 -0.11385 355.627 125.342 360.61
lowerback 16.9376 3.98695 6.69562
upperback 6.80459 6.90259 -0.828847
thorax -1.26551 3.85265 -5.8139
lowerneck 4.01038 17.5634 15.4374
upperneck 3.43215 24.6043 -12.9292
head 3.86036 12.3661 -4.94266
rclavicle -5.28767e-014 2.0276e-014
rhumerus -36.6694 -0.828436 -78.2391
rradius 54.1208
rwrist 0.576401
rhand -12.7235 -15.8652
rfingers 7.12502
rthumb 13.3598 -45.4169
lclavicle -5.28767e-014 2.0276e-014
lhumerus -31.6473 -11.6387 80.1341
lradius 49.6968
lwrist 1.84735
lhand 0.806398 10.8837
lfingers 7.12502
lthumb 26.3625 39.0712
rfemur -5.42749 -8.17127 14.8593
rtibia 27.9752
rfoot -15.6453 -30.1482
rtoes 3.68799
lfemur -0.0451753 -19.1474 -15.4455
ltibia 21.0594
lfoot -23.4522 -20.0681
ltoes -2.65996
739
root 29.0434 17.6141 -0.127044 355.651 125.424 360.689
lowerback 16.9045 4.0026 6.69669
upperback 6.79321 6.92011 -0.848564
thorax -1.25498 3.86158 -5.83498
lowerneck 3.99999 17.5458 15.4525
upperneck 3.43817 24.5803 -12.9139
head 3.86028 12.3541 -4.94192
rclavicle -6.48038e-014 3.37934e-014
rhumerus -36.6579 -0.4767 -78.5858
rradius 54.4732
rwrist 0.550437
rhand -12.5443 -15.7248
rfingers 7.12502
rthumb 13.5324 -45.2651
lclavicle -6.48038e-014 3.37934e-014
lhumerus -31.665 -11.2874 79.929
lradius 48.9589
lwrist 1.57697
lhand 0.832496 10.9351
lfingers 7.12502
lthumb 26.3875 39.1188
rfemur -5.26662 -8.09231 14.8604
rtibia 27.8108
rfoot -15.6535 -30.2794
rtoes 3.77905
lfemur -0.0518726 -19.1445 -15.4529
ltibia 21.1386
lfoot -23.4611 -20.1664
ltoes -2.55254
740
root 29.037 17.6151 -0.140505 355.679 125.495 360.766
lowerback 16.8699 4.01948 6.69557
upperback 6.78002 6.9385 -0.867827
thorax -1.24578 3.87063 -5.85444
lowerneck 3.98258 17.5301 15.4542
upperneck 3.4478 24.5576 -12.8926
head 3.86017 12.3424 -4.93718
rclavicle -1.12015e-013 1.47101e-014
rhumerus -36.6523 -0.146356 -78.9212
rradius 54.8075
rwrist 0.542342
rhand -12.3543 -15.5798
rfingers 7.12502
rthumb 13.7156 -45.1078
lclavicle -1.12015e-013 1.47101e-014
lhumerus -31.6868 -10.925 79.7218
lradius 48.224
lwrist 1.28607
lhand 0.878694 10.9841
lfingers 7.12502
lthumb 26.4317 39.1612
rfemur -5.11766 -8.01189 14.8597
rtibia 27.6465
rfoot -15.6568 -30.4021
rtoes 3.86978
lfemur -0.062909 -19.1387 -15.4626
ltibia 21.2155
lfoot -23.4684 -20.2533
ltoes -2.4531
741
root 29.0301 17.6161 -0.154266 355.707 125.553 360.841
lowerback 16.8325 4.0377 6.68945
upperback 6.76751 6.95762 -0.886078
thorax -1.23505 3.87997 -5.8698
lowerneck 3.96443 17.5168 15.4429
upperneck 3.45369 24.5368 -12.868
head 3.85734 12.3315 -4.93006
rclavicle 1.23644e-013 -3.49861e-014
rhumerus -36.6529 0.160805 -79.2449
rradius 55.1264
rwrist 0.548408
rhand -12.1555 -15.4351
rfingers 7.12502
rthumb 13.9071 -44.95
lclavicle 1.23644e-013 -3.49861e-014
lhumerus -31.7121 -10.5535 79.5138
lradius 47.4951
lwrist 0.977821
lhand 0.941801 11.0388
lfingers 7.12502
lthumb 26.4921 39.2068
rfemur -4.97616 -7.92821 14.8569
rtibia 27.4829
rfoot -15.6534 -30.5176
rtoes 3.95758
lfemur -0.0731531 -19.1316 -15.4758
ltibia 21.2906
lfoot -23.4756 -20.3287
ltoes -2.35204
742
root 29.0226 17.6171 -0.168321 355.732 125.594 360.906
lowerback 16.7951 4.05908 6.67731
upperback 6.75476 6.97978 -0.906082
thorax -1.22463 3.89067 -5.8841
lowerneck 3.94533 17.5043 15.4224
upperneck 3.45559 24.5161 -12.8408
head 3.85204 12.3206 -4.92134
rclavicle -6.90777e-014 2.18663e-015
rhumerus -36.6597 0.441329 -79.558
rradius 55.427
rwrist 0.569161
rhand -11.9517 -15.2863
rfingers 7.12502
rthumb 14.1035 -44.7877
lclavicle -6.90777e-014 2.18663e-015
lhumerus -31.7421 -10.182 79.3033
lradius 46.7792
lwrist 0.659957
lhand 1.01876 11.1008
lfingers 7.12502
lthumb 26.5658 39.2577
rfemur -4.84481 -7.83802 14.8476
rtibia 27.3217
rfoot -15.6408 -30.6254
rtoes 4.0364
lfemur -0.0834271 -19.1193 -15.4966
ltibia 21.3645
lfoot -23.4814 -20.3936
ltoes -2.24839
743
root 29.0146 17.6182 -0.182718 355.758 125.617 360.97
lowerback 16.7565 4.08314 6.6638
upperback 6.74254 7.0051 -0.926595
thorax -1.21267 3.90298 -5.89843
lowerneck 3.92514 17.4944 15.3938
upperneck 3.45456 24.4976 -12.8096
head 3.84487 12.3108 -4.91045
rclavicle 3.24019e-014 -5.24792e-014
rhumerus -36.6685 0.701545 -79.8616
rradius 55.7043
rwrist 0.593896
rhand -11.7458 -15.1385
rfingers 7.12502
rthumb 14.3019 -44.6259
lclavicle 3.24019e-014 -5.24792e-014
lhumerus -31.7762 -9.81142 79.0905
lradius 46.0795
lwrist 0.33706
lhand 1.11165 11.1712
lfingers 7.12502
lthumb 26.6547 39.3146
rfemur -4.72364 -7.74142 14.8369
rtibia 27.1621
rfoot -15.6214 -30.7222
rtoes 4.11522
lfemur -0.0931465 -19.0996 -15.5192
ltibia 21.4373
lfoot -23.4854 -20.4498
ltoes -2.13874
744
root 29.006 17.6193 -0.197301 355.783 125.623 361.03
lowerback 16.7221 4.11172 6.65078
upperback 6.72817 7.0365 -0.949953
thorax -1.20381 3.91811 -5.91745
lowerneck 3.90621 17.483 15.364
upperneck 3.45138 24.4771 -12.7769
head 3.83624 12.2999 -4.89953
rclavicle -9.64106e-015 5.76476e-015
rhumerus -36.6841 0.926161 -80.1545
rradius 55.9574
rwrist 0.624159
rhand -11.5472 -14.9973
rfingers 7.12502
rthumb 14.4933 -44.4711
lclavicle -9.64106e-015 5.76476e-015
lhumerus -31.8154 -9.45063 78.8766
lradius 45.3989
lwrist 0.0116948
lhand 1.22374 11.2446
lfingers 7.12502
lthumb 26.762 39.3717
rfemur -4.61236 -7.64016 14.8226
rtibia 27.0048
rfoot -15.591 -30.8098
rtoes 4.18784
lfemur -0.103731 -19.0676 -15.5442
ltibia 21.509
lfoot -23.4882 -20.5056
ltoes -2.02156
745
root 28.9973 17.6203 -0.212221 355.808 125.614 361.091
lowerback 16.6906 4.14307 6.63904
upperback 6.71452 7.07202 -0.973493
thorax -1.19487 3.93539 -5.93817
lowerneck 3.89016 17.4742 15.3377
upperneck 3.44792 24.4605 -12.7456
head 3.82821 12.2911 -4.88912
rclavicle 1.04113e-013 -2.60408e-014
rhumerus -36.7035 1.1225 -80.437
rradius 56.1835
rwrist 0.656724
rhand -11.3482 -14.8608
rfingers 7.12502
rthumb 14.685 -44.3208
lclavicle 1.04113e-013 -2.60408e-014
lhumerus -31.8615 -9.09743 78.6619
lradius 44.7425
lwrist -0.314581
lhand 1.35473 11.3259
lfingers 7.12502
lthumb 26.8873 39.4337
rfemur -4.50293 -7.53382 14.8094
rtibia 26.8488
rfoot -15.5499 -30.8899
rtoes 4.24143
lfemur -0.108264 -19.0204 -15.5676
ltibia 21.5799
lfoot -23.4907 -20.5655
ltoes -1.89383
746
root 28.9883 17.6212 -0.227399 355.828 125.597 361.147
lowerback 16.6605 4.17515 6.62443
upperback 6.70083 7.1081 -0.999582
thorax -1.18662 3.95293 -5.96021
lowerneck 3.87861 17.4666 15.3209
upperneck 3.4425 24.4467 -12.7208
head 3.82123 12.284 -4.88158
rclavicle -1.44119e-015 -2.38542e-015
rhumerus -36.7254 1.29426 -80.7106
rradius 56.3807
rwrist 0.68023
rhand -11.1561 -14.7321
rfingers 7.12502
rthumb 14.8701 -44.1785
lclavicle -1.44119e-015 -2.38542e-015
lhumerus -31.9162 -8.76278 78.4468
lradius 44.1179
lwrist -0.628261
lhand 1.49597 11.4229
lfingers 7.12502
lthumb 27.0225 39.5098
rfemur -4.39623 -7.42937 14.7905
rtibia 26.6958
rfoot -15.5068 -30.9607
rtoes 4.29267
lfemur -0.110789 -18.9637 -15.5944
ltibia 21.6484
lfoot -23.4915 -20.633
ltoes -1.75043
747
root 28.9793 17.622 -0.242605 355.845 125.576 361.201
lowerback 16.6312 4.20619 6.60399
upperback 6.68796 7.14206 -1.02512
thorax -1.17905 3.96931 -5.97815
lowerneck 3.87314 17.4605 15.3124
upperneck 3.43471 24.4365 -12.7039
head 3.8151 12.2788 -4.87732
rclavicle -2.44505e-014 3.06128e-014
rhumerus -36.7466 1.44539 -80.9744
rradius 56.5447
rwrist 0.701821
rhand -10.9673 -14.6168
rfingers 7.12502
rthumb 15.052 -44.0496
lclavicle -2.44505e-014 3.06128e-014
lhumerus -31.9792 -8.43616 78.2318
lradius 43.5233
lwrist -0.935821
lhand 1.64829 11.5267
lfingers 7.12502
lthumb 27.1682 39.5909
rfemur -4.28981 -7.3204 14.7714
rtibia 26.5458
rfoot -15.4665 -31.031
rtoes 4.34248
lfemur -0.110028 -18.8945 -15.6191
ltibia 21.7129
lfoot -23.4899 -20.7158
ltoes -1.58673
748
root 28.9702 17.6226 -0.257931 355.852 125.552 361.243
lowerback 16.6031 4.23847 6.57692
upperback 6.67516 7.17672 -1.05262
thorax -1.17248 3.98594 -5.99469
lowerneck 3.87212 17.4536 15.3099
upperneck 3.42617 24.4262 -12.6903
head 3.80916 12.2738 -4.87504
rclavicle -7.60351e-014 -6.95746e-015
rhumerus -36.7699 1.56143 -81.2253
rradius 56.675
rwrist 0.726156
rhand -10.7864 -14.5106
rfingers 7.12502
rthumb 15.2263 -43.9303
lclavicle -7.60351e-014 -6.95746e-015
lhumerus -32.0489 -8.13141 78.0204
lradius 42.9618
lwrist -1.23107
lhand 1.81207 11.6404
lfingers 7.12502
lthumb 27.3248 39.68
rfemur -4.18495 -7.21388 14.7441
rtibia 26.401
rfoot -15.4331 -31.0956
rtoes 4.39791
lfemur -0.106312 -18.8149 -15.6493
ltibia 21.7724
lfoot -23.4861 -20.8116
ltoes -1.41533
749
root 28.9615 17.623 -0.273125 355.856 125.533 361.284
lowerback 16.5723 4.26669 6.53822
upperback 6.66479 7.20432 -1.07615
thorax -1.16505 3.99893 -5.99919
lowerneck 3.87688 17.4508 15.3108
upperneck 3.41835 24.4226 -12.6802
head 3.8043 12.2723 -4.87371
rclavicle 1.46007e-013 -2.54444e-014
rhumerus -36.7909 1.66454 -81.4645
rradius 56.77
rwrist 0.752586
rhand -10.6109 -14.4208
rfingers 7.12502
rthumb 15.3953 -43.8276
lclavicle 1.46007e-013 -2.54444e-014
lhumerus -32.1269 -7.83058 77.8116
lradius 42.4341
lwrist -1.51938
lhand 1.9804 11.7676
lfingers 7.12502
lthumb 27.4858 39.7817
rfemur -4.07617 -7.1043 14.7184
rtibia 26.2613
rfoot -15.4128 -31.1655
rtoes 4.45644
lfemur -0.0976837 -18.7294 -15.6762
ltibia 21.8267
lfoot -23.4822 -20.9238
ltoes -1.23407
750
root 28.9526 17.6233 -0.288338 355.859 125.507 361.323
lowerback 16.5424 4.2954 6.49678
upperback 6.65363 7.23212 -1.10123
thorax -1.15908 4.01187 -6.00397
lowerneck 3.87832 17.4485 15.312
upperneck 3.41788 24.4197 -12.6653
head 3.8017 12.271 -4.8704
rclavicle -6.94255e-014 1.21259e-014
rhumerus -36.8105 1.74049 -81.694
rradius 56.8267
rwrist 0.790923
rhand -10.4477 -14.3439
rfingers 7.12502
rthumb 15.5525 -43.7385
lclavicle -6.94255e-014 1.21259e-014
lhumerus -32.2122 -7.55025 77.6055
lradius 41.9453
lwrist -1.78891
lhand 2.15306 11.9126
lfingers 7.12502
lthumb 27.651 39.9004
rfemur -3.97408 -6.99354 14.6912
rtibia 26.1284
rfoot -15.3965 -31.2299
rtoes 4.51478
lfemur -0.0876372 -18.6301 -15.7019
ltibia 21.8751
lfoot -23.4783 -21.0456
ltoes -1.04689
